# xmcd CD database file
#
# Track frame offsets:
#	150
#	18555
#	38376
#	55103
#
# Disc length: 847 seconds
#
# Revision: 0
# Processed by: cddbd v1.5.1PL0 Copyright (c) Steve Scherf et al.
# Submitted via: CDex 1.51
#
DISCID=24034d04
DTITLE=K.M.E. - -HOPE- AIR ARRANGE ALBUM preview 3.0
DYEAR=1900
DGENRE=Game
TTITLE0=SUMMER Lights
TTITLE1=Thin clothes
TTITLE2=River
TTITLE3=Giniro
EXTD=
EXTT0=
EXTT1=
EXTT2=
EXTT3=
PLAYORDER=
